<svg xmlns="http://www.w3.org/2000/svg" xmlns:xlink="http://www.w3.org/1999/xlink" width="500" zoomAndPan="magnify" viewBox="0 0 375 374.999991" height="500" preserveAspectRatio="xMidYMid meet" version="1.0"><defs><clipPath id="460971ee26"><path d="M 84.375 75.25 L 290.625 75.25 L 290.625 281.5 L 84.375 281.5 Z M 84.375 75.25 " clip-rule="nonzero"/></clipPath><clipPath id="b8d59faa93"><path d="M 187.5 75.25 C 130.546875 75.25 84.375 121.421875 84.375 178.375 C 84.375 235.332031 130.546875 281.5 187.5 281.5 C 244.453125 281.5 290.625 235.332031 290.625 178.375 C 290.625 121.421875 244.453125 75.25 187.5 75.25 Z M 187.5 75.25 " clip-rule="nonzero"/></clipPath><clipPath id="62c381d565"><path d="M 187.5 75.582031 L 310.472656 75.582031 L 310.472656 281.632812 L 187.5 281.632812 Z M 187.5 75.582031 " clip-rule="nonzero"/></clipPath><clipPath id="03d1974d40"><path d="M 310.472656 281.5 L 187.5 281.5 L 187.5 75.582031 Z M 310.472656 281.5 " clip-rule="nonzero"/></clipPath></defs><g clip-path="url(#460971ee26)"><g clip-path="url(#b8d59faa93)"><path fill="#0e0e52" d="M 84.375 75.25 L 290.625 75.25 L 290.625 281.5 L 84.375 281.5 Z M 84.375 75.25 " fill-opacity="1" fill-rule="nonzero"/></g></g><g clip-path="url(#62c381d565)"><g clip-path="url(#03d1974d40)"><path fill="#fcba04" d="M 187.5 75.582031 L 310.472656 75.582031 L 310.472656 281.632812 L 187.5 281.632812 Z M 187.5 75.582031 " fill-opacity="1" fill-rule="nonzero"/></g></g></svg>